<mxfile host="app.diagrams.net" modified="2023-11-20T08:02:24.980Z" agent="Mozilla/5.0 (Windows NT 10.0; Win64; x64) AppleWebKit/537.36 (KHTML, like Gecko) Chrome/121.0.0.0 Safari/537.36" etag="z6tRMVajk-SzFKKZ5b7g" version="22.1.3" type="github">
  <diagram name="第 1 页" id="3YBVpO7ZpEj_d3O6oqKE">
    <mxGraphModel dx="2261" dy="758" grid="1" gridSize="10" guides="1" tooltips="1" connect="1" arrows="1" fold="1" page="1" pageScale="1" pageWidth="827" pageHeight="1169" math="0" shadow="0">
      <root>
        <mxCell id="0" />
        <mxCell id="1" parent="0" />
        <mxCell id="BOhbTPmh6wwlVowSZ8-B-3" value="" style="edgeStyle=orthogonalEdgeStyle;rounded=0;orthogonalLoop=1;jettySize=auto;html=1;" edge="1" parent="1" source="BOhbTPmh6wwlVowSZ8-B-1" target="BOhbTPmh6wwlVowSZ8-B-2">
          <mxGeometry relative="1" as="geometry" />
        </mxCell>
        <mxCell id="BOhbTPmh6wwlVowSZ8-B-1" value="setState&lt;br&gt;两个参数&amp;nbsp;partialState, callback" style="rounded=1;whiteSpace=wrap;html=1;" vertex="1" parent="1">
          <mxGeometry x="-240" y="100" width="210" height="60" as="geometry" />
        </mxCell>
        <mxCell id="BOhbTPmh6wwlVowSZ8-B-2" value="enqueueSetState&lt;br&gt;在beginWork阶段，修改了类组件实例的updater对象" style="whiteSpace=wrap;html=1;rounded=1;" vertex="1" parent="1">
          <mxGeometry x="40" y="100" width="285" height="60" as="geometry" />
        </mxCell>
      </root>
    </mxGraphModel>
  </diagram>
</mxfile>
